<svg width="218" height="36" viewBox="0 0 218 36" fill="none" xmlns="http://www.w3.org/2000/svg">
<g id="logo_vic" clip-path="url(#clip0_657_4685)">
<path id="_x36_qp1b" d="M57.1517 0.359985L34.3278 25.68L22.7017 12.42H14.0127L34.5114 35.4L61.1903 5.21999L57.1517 0.359985Z" fill="#999999"/>
<path id="_x36_qp1c" d="M25.6388 35.34H34.4502L13.8903 12.42H37.3261L42.772 6.42004H-0.0610352L25.6388 35.34Z" fill="#0099CC"/>
<path id="_x36_qp1d" d="M68.1047 20.5799H66.8809L64.9229 11.8199H66.3914L67.4928 17.9399L68.5943 11.8199H70.0628L68.1047 20.5799Z" fill="#999999"/>
<path id="_x36_qp1e" d="M73.061 20.5799H74.5296V11.8199H73.061V20.5799Z" fill="#999999"/>
<path id="_x36_qp1f" d="M82.0559 18.7799C81.9947 19.9199 81.0157 20.8799 79.8531 20.8199C78.8128 20.8199 77.5278 20.3399 77.5278 18.7199V13.8599C77.5278 12.7199 78.4457 11.8199 79.7919 11.8199C81.0769 11.8199 82.0559 12.7199 82.0559 13.9199V14.3999H80.6485V13.9799C80.6485 13.4999 80.3426 13.0799 79.7919 13.0799C79.1188 13.0799 78.9352 13.4999 78.9352 14.0999V18.5999C78.9352 19.0799 79.1188 19.4999 79.7919 19.4999C80.159 19.4999 80.6485 19.3199 80.6485 18.5999V18.1799H82.0559V18.7799Z" fill="#999999"/>
<path id="_x36_qp1g" d="M86.0333 13.08H84.4424V11.88H89.0316V13.08H87.4407V20.76H86.0333V13.08Z" fill="#999999"/>
<path id="_x36_qp1h" d="M91.479 13.9799C91.479 12.5399 92.7028 11.8199 93.8042 11.8199C94.9057 11.8199 96.1295 12.5399 96.1295 13.9799V18.6599C96.1295 20.0999 94.9057 20.8199 93.8042 20.8199C92.7028 20.8199 91.479 20.0999 91.479 18.6599V13.9799ZM92.8252 18.6599C92.8252 19.2599 93.2535 19.5599 93.743 19.5599C94.2326 19.5599 94.6609 19.2599 94.6609 18.6599V13.9799C94.6609 13.3799 94.2326 13.0799 93.743 13.0799C93.2535 13.0799 92.8252 13.3799 92.8252 13.9799V18.6599Z" fill="#999999"/>
<path id="_x36_qp1i" d="M99.2505 11.9399H101.515C103.167 11.9399 103.962 12.8399 103.962 14.5199C103.962 15.5399 103.656 16.3199 102.738 16.7399L104.268 20.7599H102.8L101.515 16.9799H100.658V20.7599H99.2505V11.9399ZM100.658 15.8999H101.453C102.432 15.8999 102.555 15.4199 102.555 14.5199C102.555 13.6199 102.371 13.1399 101.331 13.1399H100.597V15.8999H100.658Z" fill="#999999"/>
<path id="_x36_qp1k" d="M107.021 20.7599H108.429V11.9399H107.021V20.7599Z" fill="#999999"/>
<path id="_x36_qp1l" d="M113.202 11.9399H114.364L116.506 20.8199H115.098L114.67 18.8999H112.773L112.345 20.8199H110.938L113.202 11.9399ZM113.752 14.4599L113.079 17.6399H114.487L113.752 14.4599Z" fill="#999999"/>
<path id="_x36_qp1m" d="M119.076 11.9399H120.422L122.503 17.2799V11.9399H123.91V20.8199H122.625L120.484 15.4799V20.8199H119.076V11.9399Z" fill="#999999"/>
<path id="_x36_qp1n" d="M135.658 18.7799C135.597 19.9199 134.618 20.8799 133.456 20.8199C132.415 20.8199 131.13 20.3399 131.13 18.7199V13.8599C131.13 12.7199 132.048 11.8199 133.394 11.8199C134.679 11.8199 135.658 12.7199 135.658 13.9199V14.3999H134.251V13.9799C134.251 13.4999 133.945 13.0799 133.394 13.0799C132.66 13.0799 132.538 13.4999 132.538 14.0999V18.5999C132.538 19.0799 132.721 19.4999 133.394 19.4999C133.762 19.4999 134.251 19.3199 134.251 18.5999V18.1799H135.658V18.7799Z" fill="#999999"/>
<path id="_x36_qp1o" d="M143.185 18.7799C143.185 19.9199 142.145 20.8799 140.921 20.8799C139.697 20.8799 138.657 19.9799 138.657 18.8399V11.9399H140.064V18.6599C140.064 19.2599 140.431 19.5599 140.921 19.5599C141.41 19.5599 141.777 19.2599 141.777 18.6599V11.9399H143.185V18.7799Z" fill="#999999"/>
<path id="_x36_qp1p" d="M146.428 11.9399H148.692C150.344 11.9399 151.14 12.8399 151.14 14.5199C151.14 15.5399 150.834 16.3199 149.916 16.7399L151.445 20.7599H149.916L148.631 16.9799H147.774V20.7599H146.367L146.428 11.9399ZM147.835 15.8999H148.631C149.61 15.8999 149.732 15.4199 149.732 14.5199C149.732 13.6199 149.549 13.1399 148.57 13.1399H147.835V15.8999Z" fill="#999999"/>
<path id="_x36_qp1q" d="M154.138 11.9399H156.402C158.054 11.9399 158.849 12.8399 158.849 14.5199C158.849 15.5399 158.543 16.3199 157.626 16.7399L159.155 20.7599H157.687L156.402 16.9799H155.545V20.7599H154.138V11.9399ZM155.545 15.8999H156.341C157.32 15.8999 157.442 15.4199 157.442 14.5199C157.442 13.6199 157.258 13.1399 156.279 13.1399H155.545V15.8999Z" fill="#999999"/>
<path id="_x36_qp1r" d="M161.909 20.7599H163.317V11.9399H161.909V20.7599Z" fill="#999999"/>
<path id="_x36_qp1s" d="M170.965 18.7799C170.904 19.9199 169.925 20.8799 168.762 20.8199C167.722 20.8199 166.437 20.3399 166.437 18.7199V13.8599C166.437 12.7199 167.355 11.8199 168.701 11.8199C169.986 11.8199 170.965 12.7199 170.965 13.9199V14.3999H169.558V13.9799C169.558 13.4999 169.252 13.0799 168.701 13.0799C167.967 13.0799 167.844 13.4999 167.844 14.0999V18.5999C167.844 19.0799 168.089 19.4999 168.701 19.4999C169.068 19.4999 169.558 19.3199 169.558 18.5999V18.1799H170.965V18.7799Z" fill="#999999"/>
<path id="_x36_qp1t" d="M178.491 18.7799C178.491 19.9199 177.451 20.8799 176.227 20.8799C175.004 20.8799 173.963 19.9799 173.963 18.8399V11.9399H175.371V18.6599C175.371 19.2599 175.738 19.5599 176.227 19.5599C176.717 19.5599 177.084 19.2599 177.084 18.6599V11.9399H178.491V18.7799Z" fill="#999999"/>
<path id="_x36_qp1u" d="M181.673 11.9399H183.081V19.5599H185.834V20.8199H181.673V11.9399Z" fill="#999999"/>
<path id="_x36_qp1v" d="M193.177 18.7799C193.177 19.9199 192.137 20.8799 190.913 20.8799C189.689 20.8799 188.649 19.9799 188.649 18.8399V11.9399H190.056V18.6599C190.056 19.2599 190.423 19.5599 190.913 19.5599C191.402 19.5599 191.77 19.2599 191.77 18.6599V11.9399H193.177V18.7799Z" fill="#999999"/>
<path id="_x36_qp1w" d="M196.359 11.9399H197.705L199.48 16.6199L201.254 11.9399H202.6V20.8199H201.193V15.4199L199.786 19.1999H199.112L197.766 15.4199V20.8199H196.359V11.9399Z" fill="#999999"/>
<path id="_x36_qp1x" d="M52.3174 26.7H53.48L55.6829 35.58H54.2755L53.8472 33.6599H51.9503L51.522 35.58H50.1758L52.3174 26.7ZM52.9293 29.28L52.2562 32.4599H53.6636L52.9293 29.28Z" fill="#999999"/>
<path id="_x36_qp1y" d="M58.1919 26.7H59.5381L61.6185 32.04V26.7H63.0259V35.58H61.7409L59.5993 30.24V35.58H58.1919V26.7Z" fill="#999999"/>
<path id="_x36_qp1z" d="M66.2075 26.7H68.288C69.8789 26.7 70.7356 27.54 70.7356 28.98V33.12C70.7356 34.74 69.8177 35.58 68.1656 35.58H66.2075V26.7ZM67.6149 34.38H68.2268C69.0223 34.38 69.3282 34.02 69.3282 33.3V29.04C69.3282 28.32 69.0835 27.96 68.2268 27.96H67.6149V34.38Z" fill="#999999"/>
<path id="_x36_qp1A" d="M79.6693 26.7H80.8319L82.9736 35.58H81.5662L81.1379 33.6599H79.241L78.8126 35.58H77.4053L79.6693 26.7ZM80.22 29.28L79.4857 32.4599H80.8931L80.22 29.28Z" fill="#999999"/>
<path id="_x36_qp1B" d="M90.0717 29.28H88.6643V28.98C88.6643 28.38 88.4195 27.9 87.6852 27.9C86.8898 27.9 86.7674 28.44 86.7674 29.04C86.7674 29.76 86.8286 29.94 87.5629 30.24L88.6031 30.6C89.8269 31.02 90.0717 31.74 90.0717 33C90.0717 34.5 89.4598 35.58 87.6852 35.58C86.3391 35.58 85.2988 34.68 85.2988 33.48V33H86.7062V33.42C86.7062 33.9 86.951 34.32 87.6852 34.32C88.6031 34.32 88.7255 33.84 88.7255 33C88.7255 32.04 88.6031 31.92 87.93 31.68L86.951 31.32C85.7272 30.9 85.4212 30.18 85.4212 29.04C85.4212 27.72 86.2167 26.64 87.8076 26.64C89.215 26.64 90.1329 27.66 90.1329 28.62L90.0717 29.28Z" fill="#999999"/>
<path id="_x36_qp1C" d="M97.537 29.28H96.1296V28.98C96.1296 28.38 95.8237 27.9 95.1506 27.9C94.3551 27.9 94.2327 28.44 94.2327 29.04C94.2327 29.76 94.2939 29.94 95.0282 30.24L96.0684 30.6C97.2922 31.02 97.537 31.74 97.537 33C97.537 34.5 96.9251 35.58 95.1506 35.58C93.8044 35.58 92.7642 34.68 92.7642 33.48V33H94.1715V33.42C94.1715 33.9 94.4775 34.32 95.1506 34.32C96.0684 34.32 96.1908 33.84 96.1908 33C96.1908 32.04 96.0684 31.92 95.3953 31.68L94.4163 31.32C93.1925 30.9 92.8865 30.18 92.8865 29.04C92.8865 27.72 93.682 26.64 95.2729 26.64C96.6803 26.64 97.5982 27.66 97.5982 28.62L97.537 29.28Z" fill="#999999"/>
<path id="_x36_qp1D" d="M100.474 26.7H104.635V27.9H101.881V30.48H104.268V31.68H101.881V34.26H104.635V35.52H100.474V26.7Z" fill="#999999"/>
<path id="_x36_qp1E" d="M111.917 29.28H110.509V28.98C110.509 28.38 110.265 27.9 109.53 27.9C108.735 27.9 108.613 28.44 108.613 29.04C108.613 29.76 108.674 29.94 109.408 30.24L110.448 30.6C111.672 31.02 111.917 31.74 111.917 33C111.917 34.5 111.305 35.58 109.53 35.58C108.184 35.58 107.144 34.68 107.144 33.48V33H108.551V33.42C108.551 33.9 108.796 34.32 109.53 34.32C110.448 34.32 110.571 33.84 110.571 33C110.571 32.04 110.448 31.92 109.775 31.68L108.796 31.32C107.572 30.9 107.266 30.18 107.266 29.04C107.266 27.72 108.062 26.64 109.653 26.64C111.06 26.64 111.978 27.66 111.978 28.62L111.917 29.28Z" fill="#999999"/>
<path id="_x36_qp1F" d="M119.321 29.28H117.913V28.98C117.913 28.38 117.669 27.9 116.934 27.9C116.139 27.9 116.016 28.44 116.016 29.04C116.016 29.76 116.078 29.94 116.812 30.24L117.852 30.6C119.076 31.02 119.321 31.74 119.321 33C119.321 34.5 118.709 35.58 116.934 35.58C115.588 35.58 114.548 34.68 114.548 33.48V33H115.955V33.42C115.955 33.9 116.2 34.32 116.934 34.32C117.852 34.32 117.975 33.84 117.975 33C117.975 32.04 117.852 31.92 117.179 31.68L116.2 31.32C114.976 30.9 114.67 30.18 114.67 29.04C114.67 27.72 115.466 26.64 117.057 26.64C118.464 26.64 119.382 27.66 119.382 28.62L119.321 29.28Z" fill="#999999"/>
<path id="_x36_qp1G" d="M122.258 26.7H123.604L125.378 31.38L127.153 26.7H128.499V35.58H127.092V30.18L125.684 33.9599H125.011L123.665 30.18V35.58H122.258V26.7Z" fill="#999999"/>
<path id="_x36_qp1H" d="M131.742 26.7H135.903V27.9H133.15V30.48H135.536V31.68H133.15V34.26H135.903V35.52H131.742V26.7Z" fill="#999999"/>
<path id="_x36_qp1I" d="M138.657 26.7H140.003L142.083 32.04V26.7H143.491V35.58H142.206L140.064 30.24V35.58H138.657V26.7Z" fill="#999999"/>
<path id="_x36_qp1J" d="M147.59 27.9H146V26.7H150.589V27.9H148.998V35.58H147.59V27.9Z" fill="#999999"/>
<path id="_x36_qp1K" d="M158.849 26.7H160.012L162.154 35.58H160.746L160.318 33.6599H158.482L158.054 35.58H156.646L158.849 26.7ZM159.4 29.28L158.727 32.4599H160.134L159.4 29.28Z" fill="#999999"/>
<path id="_x36_qp1L" d="M169.252 33.6C169.252 34.74 168.211 35.64 166.988 35.64C165.764 35.64 164.724 34.74 164.724 33.6V26.7H166.131V33.42C166.131 34.02 166.498 34.32 166.988 34.32C167.477 34.32 167.844 34.02 167.844 33.42V26.7H169.252V33.6Z" fill="#999999"/>
<path id="_x36_qp1M" d="M173.352 27.9H171.761V26.7H176.35V27.9H174.759V35.58H173.352V27.9Z" fill="#999999"/>
<path id="_x36_qp1N" d="M178.858 26.7H180.266V30.48H181.979V26.7H183.386V35.58H181.979V31.62H180.266V35.58H178.858V26.7Z" fill="#999999"/>
<path id="_x36_qp1O" d="M186.507 28.8C186.507 27.36 187.731 26.64 188.833 26.64C189.934 26.64 191.158 27.36 191.158 28.8V33.48C191.158 34.92 189.934 35.64 188.833 35.64C187.731 35.64 186.507 34.92 186.507 33.48V28.8ZM187.915 33.48C187.915 34.08 188.343 34.38 188.833 34.38C189.322 34.38 189.75 34.08 189.75 33.48V28.8C189.75 28.2 189.322 27.9 188.833 27.9C188.343 27.9 187.915 28.2 187.915 28.8V33.48Z" fill="#999999"/>
<path id="_x36_qp1P" d="M194.278 26.7H196.542C198.194 26.7 198.99 27.6 198.99 29.28C198.99 30.3 198.684 31.02 197.766 31.5L199.296 35.52H197.827L196.542 31.74H195.686V35.52H194.278V26.7ZM195.686 30.66H196.481C197.46 30.66 197.583 30.18 197.583 29.28C197.583 28.38 197.399 27.9 196.42 27.9H195.686V30.66Z" fill="#999999"/>
<path id="_x36_qp1Q" d="M202.05 35.58H203.457V26.7H202.05V35.58Z" fill="#999999"/>
<path id="_x36_qp1R" d="M207.618 27.9H206.027V26.7H210.616V27.9H209.025V35.58H207.618V27.9Z" fill="#999999"/>
<path id="_x36_qp1S" d="M214.41 31.86L212.513 26.76H213.982L215.083 30.3L216.185 26.76H217.653L215.756 31.86V35.64H214.349L214.41 31.86Z" fill="#999999"/>
</g>
<defs>
<clipPath id="clip0_657_4685">
<rect width="217.837" height="36" fill="white"/>
</clipPath>
</defs>
</svg>
