<?xml version="1.0" encoding="utf-8"?>
<!-- Generator: Adobe Illustrator 22.0.1, SVG Export Plug-In . SVG Version: 6.00 Build 0)  -->
<svg version="1.1" id="Layer_1" xmlns="http://www.w3.org/2000/svg" xmlns:xlink="http://www.w3.org/1999/xlink" x="0px" y="0px"
	 viewBox="0 0 320 125" style="enable-background:new 0 0 320 125;" xml:space="preserve">
<style type="text/css">
	.st0{fill:#7AB800;}
</style>
<g>
	<g>
		<path class="st0" d="M131.5,115.9v0.3h-0.9v2.3h0.9v6.2h2.8v-6.2h1.5v-2.3h-1.5v-0.3c0-0.6,0.2-0.8,0.8-0.8h0.8v-2.3h-1.5
			C132.5,112.8,131.5,113.8,131.5,115.9z M100.3,122.4c-1.1,0-1.7-0.7-1.7-2.1v-2.5c0-1.4,0.6-2.1,1.6-2.1c0.8,0,1.4,0.5,1.8,1.5
			l2.6-0.9c-0.5-2-2.1-3.2-4.4-3.2c-2.9,0-4.5,1.7-4.5,4.7v2.5c0,3,1.7,4.7,4.6,4.7c2.4,0,4-1.1,4.5-3.1l-2.6-0.9
			C101.8,121.9,101.2,122.4,100.3,122.4z M123.7,113.7h-2.2l-0.5,2.6h-1v2.3h0.9v3.1c0,2.3,0.8,3.1,2.8,3.1h1.4v-2.3h-0.7
			c-0.6,0-0.8-0.2-0.8-0.8v-3.1h1.5v-2.3h-1.5L123.7,113.7L123.7,113.7z M126.6,124.8h2.8v-8.6h-2.8
			C126.6,116.2,126.6,124.8,126.6,124.8z M261.9,116.1c-0.9,0-1.6,0.3-2.2,1.1h0l-0.1-0.9h-2.3v8.6h2.8v-5.4c0.3-0.6,0.7-1,1.2-1
			c0.6,0,0.9,0.4,0.9,1.2v5.2h2.8v-5.2C265,117.2,264,116.1,261.9,116.1z M145,122.6c-0.8,0-1.2-0.5-1.2-1.5V120
			c0-1,0.4-1.5,1.1-1.5c0.5,0,1,0.3,1.4,0.9l1.9-1.5c-0.8-1.2-1.9-1.8-3.4-1.8c-2.3,0-3.8,1.5-3.8,3.9v1.2c0,2.4,1.4,3.9,3.8,3.9
			c1.5,0,2.5-0.5,3.4-1.8l-1.9-1.5C146,122.4,145.5,122.6,145,122.6z M138.2,112.2c-0.9,0-1.6,0.6-1.6,1.5c0,0.9,0.7,1.6,1.6,1.6
			s1.6-0.7,1.6-1.6C139.7,112.8,139.1,112.2,138.2,112.2z M136.8,124.8h2.8v-8.6h-2.8V124.8z M245.1,112.2c-0.9,0-1.6,0.6-1.6,1.5
			c0,0.9,0.7,1.6,1.6,1.6c0.9,0,1.6-0.7,1.6-1.6C246.7,112.8,246,112.2,245.1,112.2z M109.2,116.1c-2.5,0-3.9,1.4-3.9,3.9v1.2
			c0,2.5,1.4,3.9,3.9,3.9c1.6,0,2.7-0.6,3.6-1.8l-2-1.4c-0.5,0.7-0.9,0.9-1.5,0.9c-0.9,0-1.3-0.4-1.3-1.3h4.9v-1.5
			C112.9,117.4,111.6,116.1,109.2,116.1z M108,119.8c0-0.9,0.4-1.3,1.1-1.3c0.8,0,1.2,0.4,1.2,1.3H108z M251.9,116.1
			c-2.5,0-3.9,1.4-3.9,3.9v1.2c0,2.5,1.4,3.9,3.9,3.9s3.9-1.4,3.9-3.9v-1.2C255.8,117.5,254.4,116.1,251.9,116.1z M253.1,121.1
			c0,1-0.4,1.5-1.2,1.5s-1.2-0.5-1.2-1.5V120c0-1,0.4-1.5,1.2-1.5s1.2,0.5,1.2,1.5V121.1z M116.9,117.7L116.9,117.7l-0.1-1.4h-2.4
			v8.6h2.8v-4.1c0.1-1.3,0.8-1.9,1.9-1.9c0.2,0,0.5,0,0.7,0.1v-2.7c-0.2,0-0.4-0.1-0.6-0.1C118,116.1,117.2,116.6,116.9,117.7z
			 M240.8,113.7h-2.2l-0.5,2.6h-1v2.3h0.9v3.1c0,2.3,0.8,3.1,2.8,3.1h1.4v-2.3h-0.7c-0.6,0-0.8-0.2-0.8-0.8v-3.1h1.5v-2.3h-1.5
			L240.8,113.7L240.8,113.7z M232.6,116.1c-1.5,0-2.7,0.5-3.6,1.5l1.4,1.8c0.6-0.6,1.2-0.9,1.8-0.9c0.8,0,1.3,0.4,1.3,1.2H232
			c-2.2,0-3.3,0.9-3.3,2.7v0.1c0,1.6,1.1,2.6,2.8,2.6c1.1,0,1.9-0.4,2.4-1.1h0l0.1,0.9h2.3v-5C236.3,117.3,235,116.1,232.6,116.1z
			 M233.5,122c-0.3,0.5-0.7,0.8-1.2,0.8c-0.5,0-0.8-0.3-0.8-0.8c0-0.5,0.4-0.8,1.1-0.8h1L233.5,122L233.5,122z M243.7,124.8h2.8
			v-8.6h-2.8V124.8z M178.9,116.1c-2.5,0-3.9,1.4-3.9,3.9v1.2c0,2.5,1.4,3.9,3.9,3.9c2.5,0,3.9-1.4,3.9-3.9v-1.2
			C182.9,117.5,181.5,116.1,178.9,116.1z M180.1,121.1c0,1-0.4,1.5-1.2,1.5s-1.2-0.5-1.2-1.5V120c0-1,0.4-1.5,1.2-1.5
			s1.2,0.5,1.2,1.5V121.1z M167.6,116.1c-2.5,0-3.9,1.4-3.9,3.9v1.2c0,2.5,1.4,3.9,3.9,3.9c1.6,0,2.7-0.6,3.6-1.8l-2-1.4
			c-0.5,0.7-0.9,0.9-1.5,0.9c-0.9,0-1.3-0.4-1.3-1.3h4.9v-1.5C171.4,117.4,170,116.1,167.6,116.1z M166.5,119.8
			c0-0.9,0.4-1.3,1.1-1.3c0.8,0,1.2,0.4,1.2,1.3H166.5z M192.7,124.8h8.2v-2.5h-5.3v-2h4.2v-2.4h-4.2v-1.9h5.3v-2.5h-8.2V124.8z
			 M216.5,121.6c-0.3,0.6-0.7,1-1.2,1c-0.6,0-0.9-0.4-0.9-1.2v-5.2h-2.8v5.2c0,2.4,1,3.6,3,3.6c0.9,0,1.6-0.3,2.2-1.1h0l0.1,0.9h2.3
			v-8.6h-2.8V121.6z M184.6,115.9v0.3h-0.9v2.3h0.9v6.2h2.8v-6.2h1.5v-2.3h-1.5v-0.3c0-0.6,0.2-0.8,0.8-0.8h0.8v-2.3h-1.5
			C185.6,112.8,184.6,113.8,184.6,115.9z M161.3,113.7h-2.2l-0.5,2.6h-1v2.3h0.9v3.1c0,2.3,0.8,3.1,2.8,3.1h1.4v-2.3h-0.7
			c-0.6,0-0.8-0.2-0.8-0.8v-3.1h1.5v-2.3h-1.5L161.3,113.7L161.3,113.7z M127.9,112.2c-0.9,0-1.6,0.6-1.6,1.5c0,0.9,0.7,1.6,1.6,1.6
			c0.9,0,1.6-0.7,1.6-1.6C129.5,112.8,128.8,112.2,127.9,112.2z M207.1,116.7L207.1,116.7c-0.6-0.4-1.2-0.7-1.9-0.7
			c-2.1,0-3.2,1.2-3.2,3.7v1.6c0,2.5,1.1,3.7,3.2,3.7c0.9,0,1.7-0.4,2.2-1.1h0l0.1,0.9h2.3v-12.1h-2.8L207.1,116.7L207.1,116.7z
			 M207.1,121.5c-0.3,0.7-0.7,1.1-1.3,1.1c-0.7,0-1-0.4-1-1.3v-1.6c0-0.9,0.3-1.3,1-1.3c0.6,0,1,0.4,1.3,1.1V121.5z M152.9,116.1
			c-1.5,0-2.7,0.5-3.6,1.5l1.4,1.8c0.6-0.6,1.2-0.9,1.8-0.9c0.8,0,1.3,0.4,1.3,1.2h-1.5c-2.2,0-3.3,0.9-3.3,2.7v0.1
			c0,1.6,1.1,2.6,2.8,2.6c1.1,0,1.9-0.4,2.4-1.1h0l0.1,0.9h2.3v-5C156.5,117.3,155.3,116.1,152.9,116.1z M153.8,122
			c-0.3,0.5-0.7,0.8-1.2,0.8c-0.5,0-0.8-0.3-0.8-0.8c0-0.5,0.4-0.8,1.1-0.8h1L153.8,122L153.8,122z M224.7,122.6
			c-0.8,0-1.2-0.5-1.2-1.5V120c0-1,0.4-1.5,1.1-1.5c0.5,0,1,0.3,1.4,0.9l1.9-1.5c-0.8-1.2-1.9-1.8-3.4-1.8c-2.3,0-3.8,1.5-3.8,3.9
			v1.2c0,2.4,1.4,3.9,3.8,3.9c1.5,0,2.5-0.5,3.4-1.8l-1.9-1.5C225.7,122.4,225.3,122.6,224.7,122.6z M183.9,109.1
			c1.1,0,1.9-0.4,2.4-1.1h0l0.1,0.9h2.3v-5c0-2.4-1.2-3.7-3.6-3.7c-1.5,0-2.7,0.5-3.6,1.5l1.4,1.8c0.6-0.6,1.2-0.9,1.8-0.9
			c0.8,0,1.3,0.4,1.3,1.2h-1.5c-2.2,0-3.3,0.9-3.3,2.7v0.1C181.1,108.1,182.2,109.1,183.9,109.1z M185,105.2h1v0.9
			c-0.3,0.5-0.7,0.8-1.2,0.8c-0.5,0-0.8-0.3-0.8-0.8C183.9,105.6,184.3,105.2,185,105.2z M178.2,104.8c0.1-1.3,0.8-1.9,1.9-1.9
			c0.2,0,0.4,0,0.7,0.1v-2.7c-0.2,0-0.4-0.1-0.6-0.1c-1,0-1.8,0.5-2.2,1.6h0l-0.1-1.4h-2.4v8.6h2.8L178.2,104.8L178.2,104.8z
			 M204.2,108L204.2,108l0.2,0.9h2.3v-5c0-2.4-1.2-3.7-3.6-3.7c-1.5,0-2.7,0.5-3.6,1.5l1.4,1.8c0.6-0.6,1.2-0.9,1.8-0.9
			c0.8,0,1.3,0.4,1.3,1.2h-1.5c-2.2,0-3.3,0.9-3.3,2.7v0.1c0,1.6,1.1,2.6,2.8,2.6C202.9,109.1,203.7,108.7,204.2,108z M202.7,106.9
			c-0.5,0-0.8-0.3-0.8-0.8c0-0.5,0.4-0.8,1.1-0.8h1v0.9C203.6,106.6,203.2,106.9,202.7,106.9z M132.4,103.5c0.3-0.6,0.7-1,1.2-1
			c0.6,0,0.9,0.4,0.9,1.2v5.2h2.8v-5.2c0-2.4-1-3.6-3-3.6c-0.7,0-1.3,0.2-1.8,0.7h0v-4h-2.8v12.1h2.8L132.4,103.5L132.4,103.5z
			 M212.4,102.5c0.6,0,0.9,0.4,0.9,1.2v5.2h2.8v-5.2c0-2.4-1-3.6-3-3.6c-0.9,0-1.6,0.3-2.2,1.1h0l-0.1-0.9h-2.3v8.6h2.8v-5.4
			C211.4,102.9,211.9,102.5,212.4,102.5z M144.2,107.3h3.6l0.4,1.6h3.1l-3.7-11.5h-3.3l-3.6,11.5h3L144.2,107.3z M145.9,100.7
			L145.9,100.7l1.1,4.2h-2.2L145.9,100.7z M104.3,105.4c0-2.3-1.2-3.4-4-3.7c-1.4-0.2-1.8-0.4-1.8-0.9c0-0.7,0.5-1,1.4-1
			c0.9,0,1.8,0.4,2.3,1.1l1.8-1.9c-1-1.1-2.4-1.7-4.1-1.7c-2.7,0-4.5,1.4-4.5,3.7c0,2.1,1.1,3,3.8,3.4c1.6,0.2,2,0.5,2,1.1
			c0,0.7-0.6,1-1.5,1c-1,0-2-0.5-2.8-1.4l-1.8,2c1.1,1.3,2.7,1.9,4.7,1.9C102.6,109.1,104.3,107.7,104.3,105.4z M193.2,96.9h-2.8
			v12.1h2.8V96.9z M109,100.2c-2.5,0-3.9,1.4-3.9,3.9v1.2c0,2.5,1.4,3.9,3.9,3.9s3.9-1.4,3.9-3.9V104
			C112.9,101.6,111.5,100.2,109,100.2z M110.2,105.2c0,1-0.4,1.5-1.2,1.5c-0.8,0-1.2-0.5-1.2-1.5V104c0-1,0.4-1.5,1.2-1.5
			c0.8,0,1.2,0.5,1.2,1.5V105.2z M164.9,106.9c-0.9,0-1.8-0.4-2.7-1l-1.3,2c1.1,0.9,2.4,1.3,3.9,1.3c2.3,0,3.6-1,3.6-2.9
			c0-1.7-0.9-2.5-3.2-2.8c-1-0.1-1.3-0.2-1.3-0.5c0-0.4,0.3-0.6,1-0.6c0.7,0,1.6,0.3,2.1,0.7l1.1-1.9c-0.9-0.7-1.9-1-3.4-1
			c-2.1,0-3.5,1.2-3.5,2.9c0,1.7,0.9,2.4,3.1,2.7c1,0.1,1.4,0.3,1.4,0.6C165.7,106.7,165.4,106.9,164.9,106.9z M159.7,100.3H157v5.4
			c-0.3,0.6-0.7,1-1.2,1c-0.6,0-0.9-0.4-0.9-1.2v-5.2h-2.8v5.2c0,2.4,1,3.6,3,3.6c0.9,0,1.6-0.3,2.2-1.1h0l0.1,0.9h2.3L159.7,100.3
			L159.7,100.3z M121.9,100.3h-2.8v5.4c-0.3,0.6-0.7,1-1.2,1c-0.6,0-0.9-0.4-0.9-1.2v-5.2h-2.8v5.2c0,2.4,1,3.6,3,3.6
			c0.9,0,1.6-0.3,2.2-1.1h0l0.1,0.9h2.3L121.9,100.3L121.9,100.3z M196.5,99.4c0.9,0,1.6-0.7,1.6-1.6c0-0.9-0.7-1.5-1.6-1.5
			s-1.6,0.6-1.6,1.5C194.9,98.7,195.6,99.4,196.5,99.4z M172.5,97.8h-2.2l-0.5,2.6h-1v2.3h0.9v3.1c0,2.3,0.8,3.1,2.8,3.1h1.4v-2.3
			h-0.7c-0.6,0-0.8-0.2-0.8-0.8v-3.1h1.5v-2.3h-1.5V97.8z M124.6,97.8l-0.5,2.6h-1v2.3h0.9v3.1c0,2.3,0.8,3.1,2.8,3.1h1.4v-2.3h-0.7
			c-0.6,0-0.8-0.2-0.8-0.8v-3.1h1.5v-2.3h-1.5v-2.6L124.6,97.8L124.6,97.8z M195.1,108.9h2.8v-8.6h-2.8V108.9z M125.2,62.2
			c0-12.2-10-22.1-22.2-22.1H84.8v-18C84.8,9.9,74.8,0,62.6,0S40.3,9.9,40.3,22.1s10,22.1,22.2,22.1h18.1v36H44.5v-18
			c0-12.2-10-22.1-22.2-22.1S0,50,0,62.2c0,12.2,10,22.1,22.2,22.1h18.1v18c0,12.2,10,22.1,22.2,22.1s22.2-9.9,22.2-22.1v-18h18.1
			C115.2,84.3,125.2,74.4,125.2,62.2z M40.3,80.2H22.2c-10,0-18.1-8.1-18.1-18s8.1-18,18.1-18s18.1,8.1,18.1,18L40.3,80.2L40.3,80.2
			z M80.7,102.3c0,9.9-8.1,18-18.1,18s-18.1-8.1-18.1-18v-18h36.2V102.3z M80.7,40.1H62.6c-10,0-18.1-8.1-18.1-18
			c0-9.9,8.1-18,18.1-18s18.1,8.1,18.1,18C80.7,22.1,80.7,40.1,80.7,40.1z M84.8,44.2h18.1c10,0,18.1,8.1,18.1,18
			c0,9.9-8.1,18-18.1,18H84.8V44.2z M63.5,21.2c-3.9-0.8-4.8-1.7-4.8-3.4c0-1.6,1.5-2.8,3.7-2.8c1.8,0,3.4,0.6,5.1,1.9l1.2-1.5
			c-1.8-1.4-3.6-2.1-6.2-2.1c-3.3,0-5.8,2-5.8,4.8c0,2.9,1.9,4.2,5.9,5.1c3.7,0.8,4.6,1.7,4.6,3.3c0,1.8-1.6,3-3.9,3
			c-2.4,0-4.2-0.8-6-2.5L56,28.3c2.1,1.9,4.4,2.8,7.2,2.8c3.5,0,6-1.9,6-5C69.2,23.4,67.4,22,63.5,21.2z M57.7,105.6h9.6l2.1,4.6
			h2.1l-8-17.6h-1.9l-8,17.6h2L57.7,105.6z M62.5,94.9l4,8.9h-8L62.5,94.9z M110.8,68l-2.4-2.1c-1.4,1.4-2.8,2.1-4.7,2.1
			c-2.6,0-4.6-1.6-5-4.4h12.8c0-0.4,0.1-0.7,0.1-1.1c0-5-2.8-9.4-8.4-9.4c-5,0-8.5,4.1-8.5,9.1c0,5.4,3.9,9.1,9,9.1
			C106.9,71.3,109.1,70,110.8,68z M103.2,56.4c2.6,0,4.2,2,4.4,4.6h-9C99,58.3,100.7,56.4,103.2,56.4z M22.6,67.8
			c-3.1,0-5.2-2.5-5.2-5.6c0-3.1,2.1-5.6,5-5.6c2,0,3.3,0.9,4.5,2.2l2.5-2.7c-1.6-1.8-3.7-3-7-3c-5.2,0-9.1,4.1-9.1,9.1s3.8,9,9,9
			c3.4,0,5.4-1.3,7.2-3.3l-2.4-2.4C25.9,66.9,24.5,67.8,22.6,67.8z"/>
	</g>
</g>
</svg>
